<!DOCTYPE svg PUBLIC "-//W3C//DTD SVG 1.1//EN" "http://www.w3.org/Graphics/SVG/1.1/DTD/svg11.dtd">
<!-- Uploaded to: SVG Repo, www.svgrepo.com, Transformed by: SVG Repo Mixer Tools -->
<svg width="100px" height="100px" viewBox="0 0 20 20" version="1.1" xmlns="http://www.w3.org/2000/svg" fill="#000000">
<g id="SVGRepo_bgCarrier" stroke-width="0"/>
<g id="SVGRepo_tracerCarrier" stroke-linecap="round" stroke-linejoin="round"/>
<g id="SVGRepo_iconCarrier"> <g id="layer1"> <path d="M 6 1 L 6 4 L 7 4 L 7 2 L 18 2 L 18 13 L 16 13 L 16 14 L 19 14 L 19 1 L 6 1 z M 1 6 L 1 19 L 14 19 L 14 6 L 1 6 z M 2 7 L 13 7 L 13 18 L 2 18 L 2 7 z M 7 9 L 7 12 L 4 12 L 4 13 L 7 13 L 7 16 L 8 16 L 8 13 L 11 13 L 11 12 L 8 12 L 8 9 L 7 9 z " style="fill:#222222; fill-opacity:1; stroke:none; stroke-width:0px;"/> </g> </g>
</svg>