<svg fill="#000000" viewBox="0 0 100 100" version="1.1" xml:space="preserve" xmlns="http://www.w3.org/2000/svg" xmlns:xlink="http://www.w3.org/1999/xlink"><g id="SVGRepo_bgCarrier" stroke-width="0"></g><g id="SVGRepo_tracerCarrier" stroke-linecap="round" stroke-linejoin="round"></g><g id="SVGRepo_iconCarrier"> <g id="Grid"></g> <g id="_x31_"></g> <g id="_x32_"></g> <g id="_x33_"></g> <g id="_x34_"></g> <g id="_x35_"></g> <g id="_x36_"></g> <g id="_x37_"></g> <g id="_x38_"></g> <g id="_x39_"></g> <g id="_x31_0"></g> <g id="_x31_1"></g> <g id="_x31_2"></g> <g id="_x31_3"></g> <g id="_x31_4"></g> <g id="_x31_5"></g> <g id="_x31_6"></g> <g id="_x31_7"></g> <g id="_x31_8"></g> <g id="_x31_9"></g> <g id="_x32_0"></g> <g id="_x32_1"></g> <g id="_x32_2"> <path d="M89.5,38.8H61.6v-5.2c0-0.8-0.7-1.5-1.5-1.5h-8.9V17c0-0.8-0.7-1.5-1.5-1.5s-1.5,0.7-1.5,1.5v15.1H39 c-0.8,0-1.5,0.7-1.5,1.5v5.2h-27c-0.8,0-1.5,0.7-1.5,1.5V75c0,0.8,0.7,1.5,1.5,1.5h79c0.8,0,1.5-0.7,1.5-1.5V40.3 C91,39.5,90.3,38.8,89.5,38.8z M40.5,35.1h18v3.7h-18V35.1z M88,73.5H12V41.8h27h21H88V73.5z M32,68.9h-6.6c-0.8,0-1.5-0.7-1.5-1.5 v-5.2h-5.2c-0.8,0-1.5-0.7-1.5-1.5v-6.6c0-0.8,0.7-1.5,1.5-1.5H24v-5.2c0-0.8,0.7-1.5,1.5-1.5H32c0.8,0,1.5,0.7,1.5,1.5v5.2h5.2 c0.8,0,1.5,0.7,1.5,1.5v6.6c0,0.8-0.7,1.5-1.5,1.5h-5.2v5.2C33.5,68.3,32.9,68.9,32,68.9z M27,65.9h3.6v-5.2c0-0.8,0.7-1.5,1.5-1.5 h5.2v-3.6H32c-0.8,0-1.5-0.7-1.5-1.5v-5.2H27v5.2c0,0.8-0.7,1.5-1.5,1.5h-5.2v3.6h5.2c0.8,0,1.5,0.7,1.5,1.5V65.9z M43,70.3 c-0.5,0-0.9-0.2-1.2-0.6c-0.5-0.7-0.4-1.6,0.3-2.1l4-3c0.7-0.5,1.6-0.4,2.1,0.3c0.5,0.7,0.4,1.6-0.3,2.1l-4,3 C43.6,70.2,43.3,70.3,43,70.3z M52.3,70.3c-0.5,0-0.9-0.2-1.2-0.6c-0.5-0.7-0.4-1.6,0.3-2.1l4-3c0.7-0.5,1.6-0.4,2.1,0.3 c0.5,0.7,0.4,1.6-0.3,2.1l-4,3C52.9,70.2,52.6,70.3,52.3,70.3z M68,57.6c-3.2,0-5.8-2.6-5.8-5.8c0-3.2,2.6-5.8,5.8-5.8 s5.8,2.6,5.8,5.8C73.8,55,71.2,57.6,68,57.6z M68,48.9c-1.6,0-2.8,1.3-2.8,2.8c0,1.6,1.3,2.8,2.8,2.8c1.6,0,2.8-1.3,2.8-2.8 C70.8,50.2,69.6,48.9,68,48.9z M78.7,68.9c-3.2,0-5.8-2.6-5.8-5.8c0-3.2,2.6-5.8,5.8-5.8s5.8,2.6,5.8,5.8 C84.6,66.3,82,68.9,78.7,68.9z M78.7,60.3c-1.6,0-2.8,1.3-2.8,2.8c0,1.6,1.3,2.8,2.8,2.8c1.6,0,2.8-1.3,2.8-2.8 C81.6,61.5,80.3,60.3,78.7,60.3z"></path> </g> <g id="_x32_3"></g> <g id="_x32_4"></g> <g id="_x32_5"></g> </g></svg>